<svg class="w-6 h-6" width="24" height="24" viewBox="0 0 24 24" fill="none" xmlns="http://www.w3.org/2000/svg"><path d="M20 18C20 16.8954 19.1046 16 18 16C16.8954 16 16 16.8954 16 18C16 19.1046 16.8954 20 18 20C19.1046 20 20 19.1046 20 18ZM22 18C22 20.2091 20.2091 22 18 22C15.7909 22 14 20.2091 14 18C14 15.7909 15.7909 14 18 14C20.2091 14 22 15.7909 22 18Z" fill="#686583" style="fill-opacity:1;"/><path d="M8 6C8 4.89543 7.10457 4 6 4C4.89543 4 4 4.89543 4 6C4 7.10457 4.89543 8 6 8C7.10457 8 8 7.10457 8 6ZM10 6C10 8.20914 8.20914 10 6 10C3.79086 10 2 8.20914 2 6C2 3.79086 3.79086 2 6 2C8.20914 2 10 3.79086 10 6Z" fill="#686583" style="fill-opacity:1;"/><path d="M17 15V8C17 7.73478 16.8946 7.48051 16.707 7.29297C16.5429 7.12883 16.3276 7.02757 16.0986 7.00488L16 7H13C12.4477 7 12 6.55228 12 6C12 5.44772 12.4477 5 13 5H16L16.2969 5.01465C16.9835 5.08291 17.6289 5.38671 18.1211 5.87891C18.6837 6.44152 19 7.20435 19 8V15C19 15.5523 18.5523 16 18 16C17.4477 16 17 15.5523 17 15Z" fill="#686583" style="fill-opacity:1;"/><path d="M5 21V9C5 8.44772 5.44772 8 6 8C6.55228 8 7 8.44772 7 9V21C7 21.5523 6.55228 22 6 22C5.44772 22 5 21.5523 5 21Z" fill="#686583" style="fill-opacity:1;"/></svg>