<svg class="w-6 h-6" width="24" height="24" viewBox="0 0 24 24" fill="none" xmlns="http://www.w3.org/2000/svg"><path d="M5.99997 11C6.26518 11 6.51947 11.1054 6.707 11.293L12.707 17.293C12.8945 17.4805 13 17.7348 13 18C13 18.2652 12.8945 18.5195 12.707 18.707L10.4072 21.0068C10.0915 21.3233 9.7165 21.5747 9.30368 21.7461C8.89046 21.9176 8.44739 22.0059 7.99997 22.0059C7.55254 22.0059 7.10948 21.9177 6.69626 21.7461C6.28342 21.5747 5.9084 21.3233 5.59274 21.0068L2.99313 18.4072L2.99411 18.4062C2.67763 18.0906 2.42529 17.7165 2.25388 17.3037C2.10382 16.9423 2.01731 16.558 1.99802 16.168L1.99411 16C1.99411 15.5526 2.08232 15.1095 2.25388 14.6963C2.42547 14.283 2.67717 13.9077 2.99411 13.5918L5.29294 11.293L5.36618 11.2266C5.54413 11.0807 5.76788 11 5.99997 11ZM4.00095 16.1377C4.01449 16.2747 4.04854 16.4095 4.10153 16.5371C4.15454 16.6647 4.22597 16.7834 4.31345 16.8896L4.40622 16.9912L4.4072 16.9932L7.00681 19.5928L7.00876 19.5938L7.11032 19.6865C7.21658 19.774 7.3353 19.8454 7.46286 19.8984C7.63302 19.9691 7.81572 20.0059 7.99997 20.0059C8.18423 20.0059 8.36691 19.9691 8.53708 19.8984C8.70713 19.8278 8.86217 19.7242 8.99216 19.5938L10.5859 18L5.99997 13.4141L4.4072 15.0068L4.40622 15.0088C4.27581 15.1388 4.17218 15.2929 4.10153 15.4629C4.03087 15.6331 3.99411 15.8157 3.99411 16L4.00095 16.1377Z" fill="#686583" style="fill-opacity:1;"/><path d="M4.29297 18.293C4.68349 17.9024 5.31651 17.9024 5.70703 18.293C6.09756 18.6835 6.09756 19.3165 5.70703 19.707L2.70703 22.707C2.31651 23.0975 1.68349 23.0975 1.29297 22.707C0.902445 22.3165 0.902445 21.6835 1.29297 21.293L4.29297 18.293Z" fill="#686583" style="fill-opacity:1;"/><path d="M9.36914 10.2246C9.76192 9.90427 10.3409 9.92686 10.707 10.293C11.0731 10.6591 11.0957 11.2381 10.7754 11.6309L10.707 11.707L8.20703 14.207C7.81651 14.5976 7.18349 14.5976 6.79297 14.207C6.40245 13.8165 6.40245 13.1835 6.79297 12.793L9.29297 10.293L9.36914 10.2246Z" fill="#686583" style="fill-opacity:1;"/><path d="M12.3691 13.2246C12.7619 12.9043 13.3409 12.9269 13.707 13.293C14.0731 13.6591 14.0957 14.2381 13.7754 14.6309L13.707 14.707L11.207 17.207C10.8165 17.5976 10.1835 17.5976 9.79297 17.207C9.40245 16.8165 9.40245 16.1835 9.79297 15.793L12.293 13.293L12.3691 13.2246Z" fill="#686583" style="fill-opacity:1;"/><path d="M17.3691 2.22462C17.7619 1.90427 18.3409 1.92686 18.707 2.29298C19.0731 2.65909 19.0957 3.2381 18.7754 3.63087L18.707 3.70704L16.4141 6.00001H20C20.4044 6.00001 20.769 6.2436 20.9238 6.6172C21.0786 6.99087 20.993 7.42104 20.707 7.70704L16.707 11.707C16.3165 12.0976 15.6835 12.0976 15.293 11.707C14.9024 11.3165 14.9024 10.6835 15.293 10.293L17.5859 8.00001H14C13.5956 8.00001 13.231 7.75642 13.0762 7.38282C12.9214 7.00915 13.007 6.57898 13.293 6.29298L17.293 2.29298L17.3691 2.22462Z" fill="#686583" style="fill-opacity:1;"/></svg>