<svg class="w-6 h-6" width="24" height="24" viewBox="0 0 24 24" fill="none" xmlns="http://www.w3.org/2000/svg"><path d="M12 1.00205C12.5249 1.00205 13.0401 1.14076 13.4951 1.40244L13.4961 1.40147L20.4961 5.40147L20.5 5.4044L20.667 5.50791C21.0483 5.76276 21.3673 6.10249 21.5977 6.50108C21.8608 6.95645 21.9995 7.4732 22 7.99912V16.0011C21.9995 16.527 21.8608 17.0437 21.5977 17.4991C21.3344 17.9546 20.9556 18.3328 20.5 18.5958L20.4961 18.5987L13.4961 22.5987L13.4951 22.5978C13.0401 22.8594 12.5249 22.9981 12 22.9981C11.4748 22.9981 10.9591 22.8597 10.5039 22.5978V22.5987L3.50391 18.5987L3.5 18.5958C3.04444 18.3328 2.6656 17.9546 2.40234 17.4991C2.17201 17.1005 2.03732 16.655 2.00684 16.1974L2 16.0011V7.99912L2.00684 7.80186C2.03742 7.34459 2.17219 6.89939 2.40234 6.50108C2.66559 6.04567 3.04448 5.66744 3.5 5.4044L3.50391 5.40147L10.5039 1.40147V1.40244C10.9591 1.14048 11.4748 1.00205 12 1.00205ZM12 3.00205C11.8245 3.00205 11.652 3.0481 11.5 3.13584L11.4961 3.13779L4.49902 7.13486L4.5 7.13584C4.34813 7.22352 4.22155 7.35023 4.13379 7.50205C4.04623 7.65375 4.00018 7.82591 4 8.00108V15.9991L4.00879 16.13C4.02601 16.2593 4.06815 16.3845 4.13379 16.4981C4.22077 16.6486 4.34602 16.7738 4.49609 16.8614L11.4961 20.8614L11.5 20.8644L11.6172 20.922C11.7381 20.9721 11.8682 20.9981 12 20.9981C12.1755 20.9981 12.348 20.9521 12.5 20.8644L12.5039 20.8614L19.5039 16.8614C19.654 16.7738 19.7792 16.6486 19.8662 16.4981C19.9536 16.3467 19.9996 16.1749 20 16.0001V8.00108L19.9912 7.87022C19.974 7.74093 19.9318 7.61574 19.8662 7.50205C19.7785 7.35023 19.6519 7.22352 19.5 7.13584V7.13486L12.5039 3.13779L12.5 3.13584C12.348 3.0481 12.1755 3.00205 12 3.00205Z" fill="#686583" style="fill-opacity:1;"/><path d="M20.2932 6.08691C20.7559 5.88008 21.3086 6.05306 21.5666 6.50195C21.8418 6.98078 21.6773 7.59198 21.1984 7.86719L12.4983 12.8672C12.1899 13.0444 11.8106 13.0443 11.5022 12.8672L2.80196 7.86719L2.71603 7.81152C2.30425 7.51596 2.17498 6.9509 2.43282 6.50195C2.69087 6.05295 3.24446 5.87985 3.70724 6.08691L3.79806 6.13281L11.9992 10.8457L20.2014 6.13281L20.2932 6.08691Z" fill="#686583" style="fill-opacity:1;"/><path d="M11 22V12C11 11.4477 11.4477 11 12 11C12.5523 11 13 11.4477 13 12V22C13 22.5523 12.5523 23 12 23C11.4477 23 11 22.5523 11 22Z" fill="#686583" style="fill-opacity:1;"/></svg>