<svg class="w-6 h-6" width="24" height="24" viewBox="0 0 24 24" fill="none" xmlns="http://www.w3.org/2000/svg"><path d="M20.9972 12.0052C20.9972 11.82 20.9606 11.6362 20.8897 11.4651C20.8365 11.3368 20.7647 11.2167 20.6768 11.1097L20.5831 11.0071L12.9923 3.41632C12.8615 3.28546 12.7062 3.18154 12.5352 3.11066C12.3641 3.03973 12.1804 3.00326 11.9952 3.00323C11.81 3.00323 11.6263 3.03973 11.4552 3.11066C11.284 3.1816 11.1281 3.28526 10.9972 3.41632V3.4173L3.40732 11.0071H3.40634C3.27528 11.1381 3.17162 11.294 3.10068 11.4651C3.02975 11.6363 2.99326 11.8199 2.99326 12.0052L3.00009 12.1439C3.01372 12.2815 3.04752 12.417 3.10068 12.5452C3.17157 12.7161 3.27548 12.8714 3.40634 13.0023L10.9972 20.5931L11.0997 20.6868C11.2067 20.7747 11.3268 20.8465 11.4552 20.8997C11.6263 20.9706 11.81 21.0071 11.9952 21.0071L12.1339 21.0003C12.2715 20.9867 12.407 20.9529 12.5352 20.8997C12.7063 20.8288 12.8614 20.7241 12.9923 20.5931H12.9933L20.5831 13.0032V13.0023L20.6768 12.8997C20.7646 12.7928 20.8366 12.6734 20.8897 12.5452C20.9607 12.3741 20.9971 12.1904 20.9972 12.0052ZM22.9972 12.0052C22.9971 12.4532 22.908 12.897 22.7364 13.3109C22.5863 13.673 22.3753 14.0064 22.1124 14.2962L21.9972 14.4173L14.4073 22.0071C14.0907 22.324 13.7146 22.5749 13.3009 22.7464C12.9388 22.8965 12.5538 22.983 12.1632 23.0023L11.9952 23.0071C11.5471 23.0071 11.1035 22.918 10.6895 22.7464C10.2756 22.5748 9.89882 22.3242 9.58212 22.0071V22.0062L1.99326 14.4173C1.67629 14.1006 1.42459 13.7247 1.25302 13.3109C1.10293 12.9488 1.01645 12.5638 0.997162 12.1732L0.993256 12.0052C0.993256 11.5572 1.08152 11.1134 1.25302 10.6995C1.40311 10.3374 1.61431 10.0039 1.87704 9.71417L1.99326 9.5921L9.58212 2.00323L9.70419 1.88702C9.99392 1.62429 10.3275 1.41309 10.6895 1.263C11.1034 1.0915 11.5472 1.00323 11.9952 1.00323C12.4432 1.00326 12.887 1.09144 13.3009 1.263C13.7148 1.43457 14.0907 1.68627 14.4073 2.00323L21.9962 9.5921H21.9972C22.3142 9.9088 22.5648 10.2856 22.7364 10.6995C22.908 11.1134 22.9972 11.5571 22.9972 12.0052Z" fill="#686583" style="fill-opacity:1;"/></svg>